<svg width="36" height="36" viewBox="0 0 36 36" fill="none" xmlns="http://www.w3.org/2000/svg">
<path d="M7.8 4.39999V31.6H1V4.39999H7.8ZM35 18V24.8L28.2 31.6V18H35ZM21.4 4.39999V24.8L14.6 31.6V4.39999H21.4ZM35 4.39999V11.2L28.2 18V4.39999H35Z" fill="#342469"/>
<path d="M8.3 4.39999V3.89999H7.8H1H0.5V4.39999V31.6V32.1H1H7.8H8.3V31.6V4.39999ZM35.5 18V17.5H35H29.4071L35.3536 11.5535L35.5 11.4071V11.2V4.39999V3.89999H35H28.2H27.7V4.39999V17.5V18V19.2071V31.6V32.8071L28.5536 31.9536L35.3536 25.1535L35.5 25.0071V24.8V18ZM21.9 4.39999V3.89999H21.4H14.6H14.1V4.39999V31.6V32.8071L14.9536 31.9536L21.7536 25.1535L21.9 25.0071V24.8V4.39999Z" stroke="white" stroke-opacity="0.8"/>
</svg>
