<svg id="Layer_1" data-name="Layer 1" xmlns="http://www.w3.org/2000/svg" viewBox="0 0 800 600"><defs><style>.cls-1{fill:#fff;}.cls-2{fill:#231f20;}.cls-3{fill:#1a1919;}</style></defs><g id="WB"><rect id="Box" class="cls-1" y="300" width="800" height="300"/><g id="White"><path id="Fill-1" class="cls-2" d="M171.12,411.41l-5.51,5.51,5.51,5.51,5.52-5.51Zm11.15,11.14-5.52,5.52,5.4,5.39,5.51-5.51Zm-44.06,22,16.37-16.37,27.29,27.29,5.46-5.46-32.75-32.75-21.83,21.83Zm5.46,5.46,10.91,10.92L165.5,450l-10.92-10.92Zm10.91,32.75,21.83-21.83L171,455.46l-16.38,16.37-27.29-27.29L121.83,450Zm32.75-10.92-5.46-5.46L165.5,482.75l5.46,5.46ZM198.25,450l-10.92,10.92,5.46,5.45L209.16,450l-16.37-16.37-5.46,5.45Zm-49.13-38.21,5.46-5.45,5.46,5.45,5.46-5.45-10.92-10.92-10.91,10.92Zm-27.29,16.38,5.46,5.46,16.38-16.38-5.46-5.46Zm-5.46,38.2,5.46-5.45L110.92,450l10.91-10.92-5.46-5.45L100,450Zm5.46,5.46,5.46,5.46,5.46-5.46-5.46-5.46Zm10.92,10.92,5.46,5.46,5.46-5.46-5.46-5.46Zm21.83,21.83,10.92-10.92L160,488.21l-5.46,5.45-5.46-5.45-5.45,5.45ZM700,465.36a22.23,22.23,0,0,1-6.92,4.69,20.72,20.72,0,0,1-8.46,1.73,21,21,0,0,1-8.4-1.7,21.59,21.59,0,0,1-11.52-11.51,21.6,21.6,0,0,1,0-16.8,21.56,21.56,0,0,1,11.52-11.52,21.58,21.58,0,0,1,16.86,0A22.4,22.4,0,0,1,700,435l-5.43,5.5a13.91,13.91,0,0,0-4.45-3.09,14.11,14.11,0,0,0-10.9,0,14.21,14.21,0,0,0-4.42,3,14,14,0,0,0-3,4.45,14,14,0,0,0,0,10.78,14.15,14.15,0,0,0,7.42,7.41,14.11,14.11,0,0,0,10.9,0,14.39,14.39,0,0,0,4.45-3Zm-58,6.42h7.72V428.55H642ZM612.6,446.4h14.27v19a21.54,21.54,0,0,1-3.55,2.87,22.13,22.13,0,0,1-4.17,2.13,20.53,20.53,0,0,1-7.66,1.42,21,21,0,0,1-8.4-1.7,21.68,21.68,0,0,1-11.52-11.51,21.6,21.6,0,0,1,0-16.8,21.9,21.9,0,0,1,4.64-6.89,21.66,21.66,0,0,1,6.88-4.63,21.67,21.67,0,0,1,16.9,0,22.46,22.46,0,0,1,6.88,4.69l-5.43,5.5a13.91,13.91,0,0,0-4.45-3.09,14.11,14.11,0,0,0-10.9,0,14,14,0,0,0-7.41,7.44,13.57,13.57,0,0,0-1.08,5.38,13.74,13.74,0,0,0,4.07,9.85,14.47,14.47,0,0,0,4.42,3,13.49,13.49,0,0,0,5.4,1.08,13.25,13.25,0,0,0,7.66-2.28v-7.72H612.6Zm-56.39-1.67-5.43,5.44,5.43,5.43,5.43-5.43Zm0,19.33a13.57,13.57,0,0,0,5.38-1.08,14.09,14.09,0,0,0,7.44-7.41,14,14,0,0,0,0-10.78,14,14,0,0,0-7.44-7.44,13.57,13.57,0,0,0-5.38-1.08,13.71,13.71,0,0,0-5.43,1.08,14.11,14.11,0,0,0-4.45,3,14,14,0,0,0-3,4.45,13.87,13.87,0,0,0,0,10.78,14,14,0,0,0,7.44,7.41,13.71,13.71,0,0,0,5.43,1.08Zm0-35.51a20.89,20.89,0,0,1,8.4,1.7,21.56,21.56,0,0,1,11.52,11.52,21.6,21.6,0,0,1,0,16.8,21.59,21.59,0,0,1-11.52,11.51,21.68,21.68,0,0,1-16.83,0,21.76,21.76,0,0,1-11.49-11.51,21.72,21.72,0,0,1,0-16.8,21.73,21.73,0,0,1,11.49-11.52,20.89,20.89,0,0,1,8.43-1.7Zm-58.8,0h7.72v35.51h19.58v7.72h-27.3ZM468,449.12a3.2,3.2,0,0,0,.56,0l.55-.09a6.55,6.55,0,0,0,5.44-6.42A6.1,6.1,0,0,0,474,440a6.39,6.39,0,0,0-1.42-2,6.91,6.91,0,0,0-2.07-1.39,6.1,6.1,0,0,0-2.53-.53H457v13Zm14.33,22.6-.12.06h-8.71l-8.77-15.13H457v15.13h-7.66V428.49h18.72a13.6,13.6,0,0,1,5.46,1.11,14.2,14.2,0,0,1,7.51,7.5,13.61,13.61,0,0,1,1.11,5.47,14,14,0,0,1-.68,4.35,13.55,13.55,0,0,1-1.92,3.77,15,15,0,0,1-2.9,3,13.49,13.49,0,0,1-3.71,2Zm-75.35.06V428.55h27.3v7.72H414.65v10.07H430.4V454H414.65v10.07h19.58v7.72ZM380.56,464a5.19,5.19,0,0,0,4-8.43,5.28,5.28,0,0,0-2.87-1.82l-.59-.09a3.6,3.6,0,0,0-.58,0H366V464ZM366,445.78h13.28a4.76,4.76,0,1,0,0-9.51H366Zm12.23-17.23a12.39,12.39,0,0,1,5,1,12.9,12.9,0,0,1,6.83,6.82,12.85,12.85,0,0,1,.4,9,13.67,13.67,0,0,1-1.73,3.46,13,13,0,0,1,3.61,4.38,12.94,12.94,0,0,1,.31,10.75,13.27,13.27,0,0,1-2.75,4.08,13.08,13.08,0,0,1-4.07,2.74,12.47,12.47,0,0,1-5,1H358.32V428.55Zm-35,43.23h-7.72V447.2l-11.55,11.55h-.06L312.31,447.2v24.58h-7.72V428.55l19.27,19.33,19.33-19.33Zm-61.46,0h7.72V428.55h-7.72ZM239.3,428.55H247v35.51H266.6v7.72H239.3Z"/></g></g><g id="WB-2" data-name="WB"><rect id="Box-2" data-name="Box" class="cls-3" width="800" height="300"/><g id="White-2" data-name="White"><path id="Fill-1-2" data-name="Fill-1" class="cls-1" d="M171.12,111.41l-5.51,5.51,5.51,5.51,5.52-5.51Zm11.15,11.14-5.52,5.52,5.4,5.39,5.51-5.51Zm-44.06,22,16.37-16.37,27.29,27.29,5.46-5.46-32.75-32.75-21.83,21.83Zm5.46,5.46,10.91,10.92L165.5,150l-10.92-10.92Zm10.91,32.75,21.83-21.83L171,155.46l-16.38,16.37-27.29-27.29L121.83,150Zm32.75-10.92-5.46-5.46L165.5,182.75l5.46,5.46ZM198.25,150l-10.92,10.92,5.46,5.45L209.16,150l-16.37-16.37-5.46,5.45Zm-49.13-38.21,5.46-5.45,5.46,5.45,5.46-5.45L154.58,95.42l-10.91,10.92Zm-27.29,16.38,5.46,5.46,16.38-16.38-5.46-5.46Zm-5.46,38.2,5.46-5.45L110.92,150l10.91-10.92-5.46-5.45L100,150Zm5.46,5.46,5.46,5.46,5.46-5.46-5.46-5.46Zm10.92,10.92,5.46,5.46,5.46-5.46-5.46-5.46Zm21.83,21.83,10.92-10.92L160,188.21l-5.46,5.45-5.46-5.45-5.45,5.45ZM700,165.36a22.23,22.23,0,0,1-6.92,4.69,20.72,20.72,0,0,1-8.46,1.73,21,21,0,0,1-8.4-1.7,21.59,21.59,0,0,1-11.52-11.51,21.6,21.6,0,0,1,0-16.8,21.56,21.56,0,0,1,11.52-11.52,21.58,21.58,0,0,1,16.86,0A22.4,22.4,0,0,1,700,135l-5.43,5.5a13.91,13.91,0,0,0-4.45-3.09,14.11,14.11,0,0,0-10.9,0,14.21,14.21,0,0,0-4.42,3,14,14,0,0,0-3,4.45,14,14,0,0,0,0,10.78,14.15,14.15,0,0,0,7.42,7.41,14.11,14.11,0,0,0,10.9,0,14.39,14.39,0,0,0,4.45-3Zm-58,6.42h7.72V128.55H642ZM612.6,146.4h14.27v19a21.54,21.54,0,0,1-3.55,2.87,22.13,22.13,0,0,1-4.17,2.13,20.53,20.53,0,0,1-7.66,1.42,21,21,0,0,1-8.4-1.7,21.68,21.68,0,0,1-11.52-11.51,21.6,21.6,0,0,1,0-16.8,21.9,21.9,0,0,1,4.64-6.89,21.66,21.66,0,0,1,6.88-4.63,21.67,21.67,0,0,1,16.9,0,22.46,22.46,0,0,1,6.88,4.69l-5.43,5.5a13.91,13.91,0,0,0-4.45-3.09,14.11,14.11,0,0,0-10.9,0,14,14,0,0,0-7.41,7.44,13.57,13.57,0,0,0-1.08,5.38,13.74,13.74,0,0,0,4.07,9.85,14.47,14.47,0,0,0,4.42,3,13.49,13.49,0,0,0,5.4,1.08,13.25,13.25,0,0,0,7.66-2.28v-7.72H612.6Zm-56.39-1.67-5.43,5.44,5.43,5.43,5.43-5.43Zm0,19.33a13.57,13.57,0,0,0,5.38-1.08,14.09,14.09,0,0,0,7.44-7.41,14,14,0,0,0,0-10.78,14,14,0,0,0-7.44-7.44,13.57,13.57,0,0,0-5.38-1.08,13.71,13.71,0,0,0-5.43,1.08,14.11,14.11,0,0,0-4.45,3,14,14,0,0,0-3,4.45,13.87,13.87,0,0,0,0,10.78,14,14,0,0,0,7.44,7.41,13.71,13.71,0,0,0,5.43,1.08Zm0-35.51a20.89,20.89,0,0,1,8.4,1.7,21.56,21.56,0,0,1,11.52,11.52,21.6,21.6,0,0,1,0,16.8,21.59,21.59,0,0,1-11.52,11.51,21.68,21.68,0,0,1-16.83,0,21.76,21.76,0,0,1-11.49-11.51,21.72,21.72,0,0,1,0-16.8,21.73,21.73,0,0,1,11.49-11.52,20.89,20.89,0,0,1,8.43-1.7Zm-58.8,0h7.72v35.51h19.58v7.72h-27.3ZM468,149.12a3.2,3.2,0,0,0,.56,0l.55-.09a6.55,6.55,0,0,0,5.44-6.42A6.1,6.1,0,0,0,474,140a6.39,6.39,0,0,0-1.42-2,6.91,6.91,0,0,0-2.07-1.39,6.1,6.1,0,0,0-2.53-.53H457v13Zm14.33,22.6-.12.06h-8.71l-8.77-15.13H457v15.13h-7.66V128.49h18.72a13.6,13.6,0,0,1,5.46,1.11,14.2,14.2,0,0,1,7.51,7.5,13.61,13.61,0,0,1,1.11,5.47,14,14,0,0,1-.68,4.35,13.55,13.55,0,0,1-1.92,3.77,15,15,0,0,1-2.9,3,13.49,13.49,0,0,1-3.71,2Zm-75.35.06V128.55h27.3v7.72H414.65v10.07H430.4V154H414.65v10.07h19.58v7.72ZM380.56,164a5.19,5.19,0,0,0,4-8.43,5.28,5.28,0,0,0-2.87-1.82l-.59-.09a3.6,3.6,0,0,0-.58,0H366V164ZM366,145.78h13.28a4.76,4.76,0,1,0,0-9.51H366Zm12.23-17.23a12.39,12.39,0,0,1,5,1,12.9,12.9,0,0,1,6.83,6.82,12.85,12.85,0,0,1,.4,9,13.67,13.67,0,0,1-1.73,3.46,13,13,0,0,1,3.61,4.38,12.94,12.94,0,0,1,.31,10.75,13.27,13.27,0,0,1-2.75,4.08,13.08,13.08,0,0,1-4.07,2.74,12.47,12.47,0,0,1-5,1H358.32V128.55Zm-35,43.23h-7.72V147.2l-11.55,11.55h-.06L312.31,147.2v24.58h-7.72V128.55l19.27,19.33,19.33-19.33Zm-61.46,0h7.72V128.55h-7.72ZM239.3,128.55H247v35.51H266.6v7.72H239.3Z"/></g></g></svg>