<?xml version="1.0" encoding="UTF-8"?>
<svg width="1400px" height="420px" viewBox="0 0 1400 420" version="1.1" xmlns="http://www.w3.org/2000/svg" xmlns:xlink="http://www.w3.org/1999/xlink">
    <title>Logo Final Version on White</title>
    <g id="Logo-Final-Version-on-White" stroke="none" stroke-width="1" fill="none" fill-rule="evenodd">
        <path d="M242.2428,132.811 L231.2158,143.838 L242.2428,154.865 L253.2698,143.838 L242.2428,132.811 Z M264.5358,155.104 L253.5088,166.131 L264.2968,176.919 L275.3238,165.892 L264.5358,155.104 Z M176.4128,199.084 L209.1618,166.335 L263.7428,220.916 L274.6588,210 L209.1618,144.503 L165.4968,188.168 L176.4128,199.084 Z M187.3298,210 L209.1618,231.832 L230.9938,210 L209.1618,188.168 L187.3298,210 Z M209.1618,275.497 L252.8268,231.832 L241.9108,220.916 L209.1618,253.665 L154.5808,199.084 L143.6648,210 L209.1618,275.497 Z M274.6588,253.665 L263.7428,242.749 L230.9938,275.497 L241.9108,286.413 L274.6588,253.665 Z M296.4908,210 L274.6588,231.832 L285.5748,242.749 L318.3238,210 L285.5748,177.251 L274.6588,188.168 L296.4908,210 Z M198.2458,133.587 L209.1618,122.671 L220.0778,133.587 L230.9938,122.671 L209.1618,100.838 L187.3298,122.671 L198.2458,133.587 Z M143.6648,166.335 L154.5808,177.251 L187.3298,144.503 L176.4128,133.587 L143.6648,166.335 Z M132.7488,242.749 L143.6648,231.832 L121.8328,210 L143.6648,188.168 L132.7488,177.251 L99.9998,210 L132.7488,242.749 Z M143.6648,253.665 L154.5808,264.581 L165.4968,253.665 L154.5808,242.749 L143.6648,253.665 Z M165.4968,275.497 L176.4128,286.413 L187.3298,275.497 L176.4128,264.581 L165.4968,275.497 Z M209.1618,319.162 L230.9938,297.329 L220.0778,286.413 L209.1618,297.329 L198.2458,286.413 L187.3298,297.329 L209.1618,319.162 Z M1299.9998,240.719 C1296.0468,244.672 1291.4338,247.802 1286.1648,250.107 C1280.8938,252.413 1275.2518,253.566 1269.2418,253.566 C1263.3118,253.566 1257.7108,252.435 1252.4408,250.169 C1247.1698,247.904 1242.5788,244.816 1238.6678,240.904 C1234.7558,236.993 1231.6678,232.402 1229.4038,227.13 C1227.1378,221.861 1226.0058,216.26 1226.0058,210.33 C1226.0058,204.401 1227.1378,198.802 1229.4038,193.531 C1231.6678,188.261 1234.7558,183.67 1238.6678,179.757 C1242.5788,175.847 1247.1698,172.758 1252.4408,170.492 C1257.7108,168.228 1263.3118,167.095 1269.2418,167.095 C1275.2518,167.095 1280.8938,168.25 1286.1648,170.554 C1291.4338,172.861 1296.0468,175.99 1299.9998,179.942 L1289.1298,190.936 C1286.5758,188.302 1283.6108,186.242 1280.2358,184.76 C1276.8578,183.278 1273.1938,182.537 1269.2418,182.537 C1265.3698,182.537 1261.7678,183.258 1258.4328,184.698 C1255.0968,186.14 1252.1518,188.138 1249.6008,190.689 C1247.0468,193.243 1245.0488,196.208 1243.6088,199.584 C1242.1678,202.961 1241.4468,206.544 1241.4468,210.33 C1241.4468,214.202 1242.1678,217.804 1243.6088,221.139 C1245.0488,224.475 1247.0468,227.42 1249.6008,229.972 C1252.1518,232.525 1255.0968,234.523 1258.4328,235.963 C1261.7678,237.405 1265.3698,238.124 1269.2418,238.124 C1273.1938,238.124 1276.8578,237.383 1280.2358,235.901 C1283.6108,234.419 1286.5758,232.402 1289.1298,229.848 L1299.9998,240.719 Z M1184.0068,253.565 L1199.4478,253.565 L1199.4478,167.095 L1184.0068,167.095 L1184.0068,253.565 Z M1125.2078,202.795 L1153.7428,202.795 L1153.7428,240.719 C1151.6008,242.861 1149.2348,244.776 1146.6408,246.463 C1144.0458,248.151 1141.2668,249.572 1138.3018,250.724 C1133.5248,252.62 1128.4198,253.566 1122.9848,253.566 C1117.0548,253.566 1111.4538,252.435 1106.1848,250.169 C1100.9138,247.904 1096.3218,244.816 1092.4108,240.904 C1088.4988,236.993 1085.4108,232.402 1083.1468,227.13 C1080.8808,221.861 1079.7498,216.26 1079.7498,210.33 C1079.7498,204.401 1080.8808,198.802 1083.1468,193.531 C1085.4108,188.261 1088.4988,183.67 1092.4108,179.757 C1096.3218,175.847 1100.9138,172.758 1106.1848,170.492 C1111.4538,168.228 1117.0548,167.095 1122.9848,167.095 C1129.0778,167.095 1134.7388,168.25 1139.9698,170.554 C1145.1988,172.861 1149.7898,175.99 1153.7428,179.942 L1142.8728,190.936 C1140.3188,188.302 1137.3548,186.242 1133.9788,184.76 C1130.6008,183.278 1126.9378,182.537 1122.9848,182.537 C1119.1128,182.537 1115.5108,183.258 1112.1758,184.698 C1108.8408,186.14 1105.8948,188.138 1103.3438,190.689 C1100.7898,193.243 1098.7928,196.208 1097.3528,199.584 C1095.9108,202.961 1095.1908,206.544 1095.1908,210.33 C1095.1908,214.202 1095.9108,217.825 1097.3528,221.201 C1098.7928,224.579 1100.7898,227.522 1103.3438,230.033 C1105.8948,232.546 1108.8408,234.523 1112.1758,235.963 C1115.5108,237.405 1119.1128,238.124 1122.9848,238.124 C1128.7478,238.124 1133.8548,236.602 1138.3018,233.554 L1138.3018,218.113 L1125.2078,218.113 L1125.2078,202.795 Z M1012.4258,199.469 L1001.5648,210.33 L1012.4258,221.192 L1023.2878,210.33 L1012.4258,199.469 Z M1012.4258,238.124 C1016.2128,238.124 1019.7948,237.405 1023.1728,235.963 C1026.5488,234.523 1029.5138,232.525 1032.0668,229.972 C1034.6188,227.42 1036.6168,224.475 1038.0578,221.139 C1039.4978,217.804 1040.2198,214.202 1040.2198,210.33 C1040.2198,206.544 1039.4978,202.961 1038.0578,199.584 C1036.6168,196.208 1034.6188,193.243 1032.0668,190.689 C1029.5138,188.138 1026.5488,186.14 1023.1728,184.698 C1019.7948,183.258 1016.2128,182.537 1012.4258,182.537 C1008.5538,182.537 1004.9308,183.258 1001.5558,184.698 C998.1778,186.14 995.2128,188.138 992.6618,190.689 C990.1078,193.243 988.1098,196.208 986.6698,199.584 C985.2288,202.961 984.5088,206.544 984.5088,210.33 C984.5088,214.202 985.2288,217.804 986.6698,221.139 C988.1098,224.475 990.1078,227.42 992.6618,229.972 C995.2128,232.525 998.1778,234.523 1001.5558,235.963 C1004.9308,237.405 1008.5538,238.124 1012.4258,238.124 L1012.4258,238.124 Z M1012.4258,167.095 C1018.3558,167.095 1023.9548,168.228 1029.2258,170.492 C1034.4948,172.758 1039.0868,175.847 1042.9988,179.757 C1046.9098,183.67 1049.9978,188.261 1052.2638,193.531 C1054.5278,198.802 1055.6608,204.401 1055.6608,210.33 C1055.6608,216.26 1054.5278,221.861 1052.2638,227.13 C1049.9978,232.402 1046.9098,236.993 1042.9988,240.904 C1039.0868,244.816 1034.4948,247.904 1029.2258,250.169 C1023.9548,252.435 1018.3558,253.566 1012.4258,253.566 C1006.4138,253.566 1000.7928,252.435 995.5648,250.169 C990.3338,247.904 985.7628,244.816 981.8528,240.904 C977.9398,236.993 974.8518,232.402 972.5878,227.13 C970.3218,221.861 969.1908,216.26 969.1908,210.33 C969.1908,204.401 970.3218,198.802 972.5878,193.531 C974.8518,188.261 977.9398,183.67 981.8528,179.757 C985.7628,175.847 990.3338,172.758 995.5648,170.492 C1000.7928,168.228 1006.4138,167.095 1012.4258,167.095 L1012.4258,167.095 Z M894.8258,167.095 L910.2668,167.095 L910.2668,238.124 L949.4258,238.124 L949.4258,253.566 L894.8258,253.566 L894.8258,167.095 Z M835.9028,208.231 C836.3138,208.231 836.6848,208.211 837.0148,208.169 C837.3428,208.128 837.7128,208.066 838.1268,207.983 C841.1718,207.489 843.7468,206.028 845.8468,203.598 C847.9468,201.17 848.9968,198.348 848.9968,195.136 C848.9968,193.326 848.6458,191.637 847.9468,190.072 C847.2458,188.508 846.2988,187.15 845.1058,185.995 C843.9108,184.843 842.5308,183.917 840.9678,183.216 C839.4018,182.517 837.7128,182.166 835.9028,182.166 L814.0378,182.166 L814.0378,208.231 L835.9028,208.231 Z M864.5618,253.442 L864.3148,253.566 L846.8968,253.566 L829.3558,223.301 L814.0378,223.301 L814.0378,253.566 L798.7208,253.566 L798.7208,166.972 L836.1498,166.972 C840.0198,166.972 843.6638,167.713 847.0818,169.195 C850.4988,170.678 853.4848,172.697 856.0378,175.248 C858.5898,177.802 860.6088,180.788 862.0908,184.204 C863.5728,187.622 864.3148,191.267 864.3148,195.136 C864.3148,198.184 863.8608,201.087 862.9558,203.845 C862.0488,206.605 860.7728,209.116 859.1258,211.38 C857.4778,213.646 855.5438,215.642 853.3208,217.372 C851.0968,219.101 848.6258,220.46 845.9088,221.448 L864.5618,253.442 Z M713.8568,253.566 L713.8568,167.095 L768.4568,167.095 L768.4568,182.537 L729.2978,182.537 L729.2978,202.672 L760.7978,202.672 L760.7978,217.989 L729.2978,217.989 L729.2978,238.124 L768.4568,238.124 L768.4568,253.566 L713.8568,253.566 Z M661.1118,238.001 C663.9938,238.001 666.4428,236.993 668.4618,234.974 C670.4788,232.957 671.4878,230.508 671.4878,227.624 C671.4878,225.154 670.7258,222.992 669.2028,221.139 C667.6778,219.286 665.7638,218.072 663.4588,217.495 C663.0458,217.414 662.6558,217.352 662.2848,217.31 C661.9148,217.269 661.5228,217.248 661.1118,217.248 L631.9588,217.248 L631.9588,238.001 L661.1118,238.001 Z M631.9588,201.56 L658.5178,201.56 C661.1518,201.56 663.3968,200.634 665.2498,198.781 C667.1028,196.928 668.0288,194.685 668.0288,192.048 C668.0288,189.414 667.1028,187.169 665.2498,185.316 C663.3968,183.463 661.1518,182.537 658.5178,182.537 L631.9588,182.537 L631.9588,201.56 Z M656.4178,167.095 C659.9578,167.095 663.2928,167.775 666.4238,169.134 C669.5518,170.492 672.2698,172.326 674.5768,174.631 C676.8808,176.937 678.7148,179.655 680.0738,182.784 C681.4318,185.914 682.1118,189.25 682.1118,192.789 C682.1118,195.59 681.6988,198.225 680.8768,200.695 C680.0518,203.166 678.8998,205.472 677.4178,207.613 C680.4628,210.002 682.8718,212.925 684.6438,216.383 C686.4138,219.842 687.2998,223.672 687.2998,227.872 C687.2998,231.413 686.6208,234.749 685.2618,237.877 C683.9028,241.008 682.0688,243.726 679.7648,246.03 C677.4578,248.337 674.7408,250.169 671.6118,251.527 C668.4808,252.886 665.1458,253.566 661.6058,253.566 L616.6418,253.566 L616.6418,167.095 L656.4178,167.095 Z M586.3778,253.566 L570.9368,253.566 L570.9368,204.401 L547.8368,227.501 L547.7128,227.501 L524.6128,204.401 L524.6128,253.566 L509.1718,253.566 L509.1718,167.095 L547.7128,205.76 L586.3778,167.095 L586.3778,253.566 Z M463.4668,253.565 L478.9078,253.565 L478.9078,167.095 L463.4668,167.095 L463.4668,253.565 Z M378.6028,167.095 L394.0438,167.095 L394.0438,238.124 L433.2028,238.124 L433.2028,253.566 L378.6028,253.566 L378.6028,167.095 Z" id="Fill-1" fill="#1A1919"></path>
    </g>
</svg>