<svg width="136" height="13" viewBox="0 0 136 13" fill="none" xmlns="http://www.w3.org/2000/svg">
<path d="M2.36679 12.5232C1.34968 12.7301 0.5 11.8697 0.5 10.8318C0.5 9.79382 1.36417 8.98199 2.34448 8.64096C2.78833 8.48656 3.21726 8.27473 3.62018 8.0055L12.1747 2.28928C15.3237 0.185044 19.4262 0.185042 22.5753 2.28928L31.1298 8.0055C33.0192 9.26804 35.4807 9.26804 37.3702 8.0055L45.9247 2.28928C49.0737 0.185043 53.1762 0.185043 56.3253 2.28928L64.8798 8.0055C66.7692 9.26804 69.2308 9.26804 71.1202 8.0055L79.6747 2.28928C82.8237 0.185044 86.9262 0.185043 90.0753 2.28928L98.6298 8.0055C100.519 9.26804 102.981 9.26804 104.87 8.0055L113.425 2.28928C116.574 0.185044 120.676 0.185042 123.825 2.28928L132.38 8.0055C132.783 8.27474 133.212 8.48656 133.656 8.64097C134.636 8.98199 135.5 9.79382 135.5 10.8318C135.5 11.8697 134.65 12.7301 133.633 12.5232C132.464 12.2854 131.331 11.822 130.3 11.1329L121.745 5.4167C119.856 4.15416 117.394 4.15416 115.505 5.41671L106.95 11.1329C103.801 13.2372 99.6987 13.2372 96.5497 11.1329L87.9952 5.4167C86.1058 4.15416 83.6442 4.15416 81.7548 5.4167L73.2003 11.1329C70.0512 13.2372 65.9487 13.2372 62.7997 11.1329L54.2452 5.4167C52.3557 4.15416 49.8942 4.15416 48.0048 5.4167L39.4503 11.1329C36.3013 13.2372 32.1987 13.2372 29.0497 11.1329L20.4952 5.4167C18.6057 4.15416 16.1442 4.15416 14.2548 5.4167L5.70031 11.1329C4.66906 11.822 3.53556 12.2854 2.36679 12.5232Z" fill="white"/>
</svg>
