<svg width="100" height="100" viewBox="0 0 100 100" fill="none" xmlns="http://www.w3.org/2000/svg">
<path d="M49.9755 89.4043C55.3792 89.4043 60.4573 88.3789 65.2099 86.3281C69.9625 84.2773 74.1536 81.429 77.7832 77.7832C81.4128 74.1373 84.2611 69.9381 86.3281 65.1855C88.3952 60.4329 89.4287 55.3711 89.4287 50C89.4287 44.6289 88.3952 39.5671 86.3281 34.8144C84.2611 30.0618 81.4046 25.8626 77.7588 22.2168C74.113 18.5709 69.9137 15.7226 65.1611 13.6719C60.4085 11.6211 55.3304 10.5957 49.9267 10.5957C44.5557 10.5957 39.4938 11.6211 34.7412 13.6719C29.9886 15.7226 25.8057 18.5709 22.1924 22.2168C18.5791 25.8626 15.7389 30.0618 13.6719 34.8144C11.6048 39.5671 10.5713 44.6289 10.5713 50C10.5713 55.3711 11.6048 60.4329 13.6719 65.1855C15.7389 69.9381 18.5872 74.1373 22.2167 77.7832C25.8463 81.429 30.0375 84.2773 34.7901 86.3281C39.5427 88.3789 44.6045 89.4043 49.9755 89.4043ZM49.9755 81.9824C45.5485 81.9824 41.4062 81.1605 37.5488 79.5166C33.6914 77.8727 30.3059 75.5859 27.3925 72.6562C24.4791 69.7265 22.2005 66.3249 20.5567 62.4512C18.9128 58.5775 18.0908 54.4271 18.0908 50C18.0908 45.5729 18.9046 41.4225 20.5322 37.5488C22.1598 33.6751 24.4304 30.2734 27.3438 27.3437C30.2571 24.414 33.6425 22.1273 37.4999 20.4834C41.3574 18.8395 45.4997 18.0176 49.9267 18.0176C54.3864 18.0176 58.5449 18.8395 62.4023 20.4834C66.2597 22.1273 69.6533 24.414 72.583 27.3437C75.5127 30.2734 77.8076 33.6751 79.4678 37.5488C81.128 41.4225 81.9581 45.5729 81.9581 50C81.9581 54.4271 81.1361 58.5775 79.4921 62.4512C77.8483 66.3249 75.5696 69.7265 72.6562 72.6562C69.7428 75.5859 66.3493 77.8727 62.4755 79.5166C58.6019 81.1605 54.4352 81.9824 49.9755 81.9824ZM76.294 75.3906L76.1475 74.9023C75.5615 73.0143 74.0967 71.167 71.7529 69.3603C69.4092 67.5537 66.3818 66.0645 62.6708 64.8926C58.9599 63.7207 54.7281 63.1348 49.9755 63.1348C45.2555 63.1348 41.0319 63.7207 37.3047 64.8926C33.5775 66.0645 30.5501 67.5537 28.2227 69.3603C25.8952 71.167 24.4385 73.0143 23.8526 74.9023L23.706 75.3906C26.0172 77.6693 28.7923 79.598 32.0312 81.1768C35.2702 82.7555 38.4929 83.96 41.6993 84.79C44.9056 85.6201 47.6643 86.0352 49.9755 86.0352C52.2867 86.0352 55.0537 85.6201 58.2763 84.79C61.499 83.96 64.7217 82.7555 67.9443 81.1768C71.167 79.598 73.9502 77.6693 76.294 75.3906ZM49.9755 56.6894C52.4495 56.722 54.6794 56.1035 56.665 54.834C58.6507 53.5645 60.2295 51.8392 61.4013 49.6582C62.5732 47.4772 63.1591 45.0032 63.1591 42.2363C63.1591 39.6647 62.5732 37.3047 61.4013 35.1562C60.2295 33.0078 58.6507 31.2907 56.665 30.0049C54.6794 28.7191 52.4495 28.0762 49.9755 28.0762C47.5341 28.0762 45.3125 28.7191 43.3105 30.0049C41.3086 31.2907 39.7217 33.0078 38.5498 35.1562C37.3779 37.3047 36.8082 39.6647 36.8408 42.2363C36.8408 45.0032 37.4268 47.4691 38.5986 49.6338C39.7705 51.7985 41.3493 53.5075 43.3349 54.7607C45.3206 56.014 47.5341 56.6569 49.9755 56.6894Z" fill="black"/>
</svg>
