<svg id="Layer_1" data-name="Layer 1" xmlns="http://www.w3.org/2000/svg" viewBox="0 0 800 600"><defs><style>.cls-1{fill:#9e9ec9;}.cls-2{fill:#fff;}</style></defs><rect id="Box" class="cls-1" width="800" height="600"/><path class="cls-2" d="M88.71,316.94l6.34-4.83a16,16,0,0,0,13.3,6.48c7.17,0,11.69-2.73,11.69-6.62,0-4.37-4.69-6.86-13.55-9.48s-16.2-6.55-16.2-14.88c0-8.61,9.45-12.71,19.39-12.71,9,0,15.08,4,17.64,7.81l-6.09,4.72a13.78,13.78,0,0,0-11.73-6c-5.53,0-10.5,2.21-10.5,6.2s4.27,6.61,11.59,8.82c9,2.76,18.24,6.27,18.24,15,0,9.87-10.19,13.65-20.69,13.65C98.51,325.1,91.69,321,88.71,316.94Z"/><path class="cls-2" d="M143,306.86V275.32h8.57v31.19c0,8.3,4,11.9,10.89,11.9s10.74-3.6,10.74-11.9V275.32h8.58v31.54c0,12.67-8.26,18.24-19.32,18.24S143,319.53,143,306.86Z"/><path class="cls-2" d="M198.23,275.32h18.55c7.17,0,16.34,1.68,16.34,12,0,8.05-5.49,10.68-7.56,11.06,2.66.28,9.59,2.56,9.59,11.8,0,9-5.49,14.11-15.61,14.11H198.23Zm18.86,20.62c3.92,0,7.42-2.45,7.42-7.56,0-5.39-3-6.79-7.84-6.79h-9.76v14.35Zm1.51,22.12c4.9,0,7.8-2.41,7.8-8.26s-3.64-7.63-7.59-7.63h-11.9v15.89Z"/><path class="cls-2" d="M248.31,316.94l6.33-4.83A16,16,0,0,0,268,318.59c7.17,0,11.69-2.73,11.69-6.62,0-4.37-4.69-6.86-13.55-9.48s-16.21-6.55-16.21-14.88c0-8.61,9.46-12.71,19.4-12.71,9,0,15.08,4,17.64,7.81l-6.09,4.72a13.78,13.78,0,0,0-11.73-6c-5.53,0-10.5,2.21-10.5,6.2s4.27,6.61,11.59,8.82c9,2.76,18.23,6.27,18.23,15,0,9.87-10.18,13.65-20.68,13.65C258.11,325.1,251.28,321,248.31,316.94Z"/><path class="cls-2" d="M340.08,281.73H325.66v42.6h-8.54v-42.6H302.73v-6.41h37.35Z"/><path class="cls-2" d="M367,305.74v18.59h-8.61v-49h19.92c8.68,0,16.2,2.73,16.2,14.84,0,12.67-8.05,15.58-15.61,15.58Zm0-6.37h12.29c4.27,0,6.47-3.15,6.47-9.14,0-5.25-2.13-8.5-6.61-8.5H367Zm11.62,4.55,7.67-2.59,7.84,23h-9.1Z"/><path class="cls-2" d="M409,306.86V275.32h8.58v31.19c0,8.3,3.95,11.9,10.88,11.9s10.75-3.6,10.75-11.9V275.32h8.58v31.54c0,12.67-8.26,18.24-19.33,18.24S409,319.53,409,306.86Z"/><path class="cls-2" d="M460.79,300c0-18.41,10.71-25.06,22-25.06,10,0,15.65,5.6,18,9.77l-6.69,4.06c-1.57-3.08-5-7.42-11.23-7.42-7.53,0-13.41,5.67-13.41,18.65s5.74,18.73,13.23,18.73a13.17,13.17,0,0,0,11.41-6.93l6.41,4.2c-2.13,3.71-7.84,9.14-17.89,9.14C471.26,325.1,460.79,318.34,460.79,300Z"/><path class="cls-2" d="M552.88,281.73H538.46v42.6h-8.54v-42.6H515.53v-6.41h37.35Z"/><path class="cls-2" d="M568.59,306.86V275.32h8.58v31.19c0,8.3,4,11.9,10.88,11.9s10.75-3.6,10.75-11.9V275.32h8.57v31.54c0,12.67-8.26,18.24-19.32,18.24S568.59,319.53,568.59,306.86Z"/><path class="cls-2" d="M633,305.74v18.59h-8.61v-49h19.91c8.68,0,16.21,2.73,16.21,14.84,0,12.67-8,15.58-15.61,15.58Zm0-6.37h12.28c4.27,0,6.48-3.15,6.48-9.14,0-5.25-2.14-8.5-6.62-8.5H633Zm11.62,4.55,7.66-2.59,7.84,23h-9.1Z"/><path class="cls-2" d="M686.68,281.73v15.33H707.3v6.37H686.68v14.49h24.61v6.41h-33v-49h33v6.41Z"/></svg>